<svg xmlns="http://www.w3.org/2000/svg" xmlns:xlink="http://www.w3.org/1999/xlink" viewBox="0 0 256 256" width="102px" height="102px">
  <style type="text/css">
    @keyframes ld-pulse
{
  0% {
    animation-timing-function: cubic-bezier(0.0413,0.3905,0.5086,0.6902);
    transform: scale(1);
  }
  24.3% {
    animation-timing-function: cubic-bezier(0.2248,0.6332,0.5246,1);
    transform: scale(0.8458);
  }
  55% {
    animation-timing-function: cubic-bezier(0.3036,0.3393,0.655,0.6144);
    transform: scale(0.8022);
  }
  70.2% {
    animation-timing-function: cubic-bezier(0.4464,0.2728,0.5562,0.7288);
    transform: scale(0.8294);
  }
  82.3% {
    animation-timing-function: cubic-bezier(0.6826,0.1845,1,0.7358);
    transform: scale(0.869);
  }
  100% {
    transform: scale(1);
  }
}
.ld.ld-pulse {
  animation: ld-pulse 0.5s infinite;
}
    @keyframes ld-move {
      0% { transform: translate(0,0) }
      100% { transform: translate(256px,0) }
    }
  </style>
  <defs><g id="id-0.7770406994356165">
    
<!-- Generator: Adobe Illustrator 21.0.0, SVG Export Plug-In . SVG Version: 6.00 Build 0)  -->


<path fill="#D2E7F0" d="M0,192.002V256h64C28.655,256,0.001,227.348,0,192.002z"/>
<path fill="#0089D0" d="M64,0H0v63.998C0.001,28.652,28.655,0,64,0z"/>
<path fill="#D2E7F0" d="M128,64H64v64C99.346,128,128,99.346,128,64z"/>
<polygon fill="#0089D0" points="0,64 0,64.002 0,64 "/>
<path fill="#0089D0" d="M64,128V64H0v0.002C0.001,99.348,28.655,128,64,128z"/>
<polygon fill="#A0C8D7" points="0,63.998 0,64 0,64 "/>
<path fill="#A0C8D7" d="M64,64V0C28.655,0,0.001,28.652,0,63.998V64H64z"/>
<path fill="#0089D0" d="M128,64c0-35.346-28.654-64-64-64v64H128z"/>
<path fill="#F2F2F3" d="M192,128c35.346,0,64-28.654,64-64h-64V128z"/>
<path fill="#D2E7F0" d="M256,64c0-35.346-28.654-64-64-64v64H256z"/>
<path fill="#0089D0" d="M128,64h64V0C156.654,0,128,28.654,128,64z"/>
<path fill="#A0C8D7" d="M128,64c0,35.346,28.654,64,64,64V64H128z"/>
<polygon fill="#F2F2F3" points="0,191.998 0,192 0,192 "/>
<path fill="#F2F2F3" d="M64,192v-64c-35.345,0-63.999,28.652-64,63.998V192H64z"/>
<path fill="#D2E7F0" d="M64,128v64h64C128,156.654,99.346,128,64,128z"/>
<path fill="#A0C8D7" d="M128,192H64v64C99.346,256,128,227.346,128,192z"/>
<polygon fill="#0089D0" points="0,192 0,192.002 0,192 "/>
<path fill="#0089D0" d="M0,192v0.002C0.001,227.348,28.655,256,64,256v-64H0z"/>
<path fill="#D2E7F0" d="M256,192h-64v64C227.346,256,256,227.346,256,192z"/>
<path fill="#0089D0" d="M256,192c0-35.346-28.654-64-64-64v64H256z"/>
<path fill="#0089D0" d="M128,192c0,35.346,28.654,64,64,64v-64H128z"/>
<path fill="#A0C8D7" d="M128,192h64v-64C156.654,128,128,156.654,128,192z"/>
<circle fill="none" cx="192" cy="192" r="64"/>
<circle fill="none" cx="192" cy="64" r="64"/>
<path fill="#0089D0" d="M64,256h64v-64C128,227.346,99.346,256,64,256z"/>
<path fill="#F2F2F3" d="M128,192v64h64C156.654,256,128,227.346,128,192z"/>
<path fill="#A0C8D7" d="M0,191.998C0.001,156.652,28.655,128,64,128H0V191.998z"/>
<path fill="#D2E7F0" d="M0,64.002V128h64C28.655,128,0.001,99.348,0,64.002z"/>
<path fill="#F2F2F3" d="M256,64V0h-64C227.346,0,256,28.654,256,64z"/>
<path fill="#F2F2F3" d="M192,128c35.346,0,64,28.654,64,64v-64H192z"/>
<path fill="#A0C8D7" d="M192,256h64v-64C256,227.346,227.346,256,192,256z"/>
<path fill="#0089D0" d="M192,128h64V64C256,99.346,227.346,128,192,128z"/>
<path fill="#F2F2F3" d="M64,0c35.346,0,64,28.654,64,64V0H64z"/>
<path fill="#A0C8D7" d="M192,0h-64v64C128,28.654,156.654,0,192,0z"/>
<path fill="#A0C8D7" d="M64,128c35.346,0,64,28.654,64,64v-64H64z"/>
<path fill="#F2F2F3" d="M192,128h-64v64C128,156.654,156.654,128,192,128z"/>
<path fill="#0089D0" d="M192,128c-35.346,0-64-28.654-64-64v64H192z"/>
<path fill="#F2F2F3" d="M128,64c0,35.346-28.654,64-64,64h64V64z"/>


  </g></defs>
  <rect x="0" y="0" fill="#F2F2F3" width="256" height="256"/>
  <g>
    <use xlink:href="#id-0.7770406994356165" x="-256" y="-256"/><use xlink:href="#id-0.7770406994356165" x="0" y="-256"/><use xlink:href="#id-0.7770406994356165" x="256" y="-256"/><use xlink:href="#id-0.7770406994356165" x="-256" y="0"/><use xlink:href="#id-0.7770406994356165" x="0" y="0"/><use xlink:href="#id-0.7770406994356165" x="256" y="0"/><use xlink:href="#id-0.7770406994356165" x="-256" y="256"/><use xlink:href="#id-0.7770406994356165" x="0" y="256"/><use xlink:href="#id-0.7770406994356165" x="256" y="256"/>
    <animateTransform attributeName="transform" type="translate" dur="4s" repeatCount="indefinite" keyTimes="0;1" values="0;256"/>
  </g>
</svg>